<?xml version="1.0" encoding="utf-8"?>
<!-- Generator: Adobe Illustrator 27.5.0, SVG Export Plug-In . SVG Version: 6.00 Build 0)  -->
<svg version="1.1" xmlns="http://www.w3.org/2000/svg" xmlns:xlink="http://www.w3.org/1999/xlink" x="0px" y="0px"
	 viewBox="0 0 500 500" style="enable-background:new 0 0 500 500;" xml:space="preserve">
<g id="Background_complete">
	<g>
		
			<rect x="28.007" y="212.961" transform="matrix(0.7071 0.7071 -0.7071 0.7071 178.6689 13.8699)" style="fill:#E6E6E6;" width="89.17" height="19.292"/>
		
			<rect x="28.007" y="212.961" transform="matrix(-0.7071 0.7071 -0.7071 -0.7071 281.3295 328.6844)" style="fill:#E6E6E6;" width="89.17" height="19.292"/>
	</g>
	<g>
		
			<rect x="127.795" y="92.061" transform="matrix(0.7071 0.7071 -0.7071 0.7071 114.7981 -81.1174)" style="fill:#E6E6E6;" width="55.042" height="11.909"/>
		
			<rect x="127.795" y="92.061" transform="matrix(-0.7071 0.7071 -0.7071 -0.7071 334.4486 57.4965)" style="fill:#E6E6E6;" width="55.042" height="11.909"/>
	</g>
	<g>
		
			<rect x="92.88" y="305.134" transform="matrix(0.7071 0.7071 -0.7071 0.7071 251.3636 11.5721)" style="fill:#E6E6E6;" width="37.665" height="8.149"/>
		
			<rect x="92.88" y="305.134" transform="matrix(-0.7071 0.7071 -0.7071 -0.7071 409.3496 448.8592)" style="fill:#E6E6E6;" width="37.665" height="8.149"/>
	</g>
	<g>
		
			<rect x="367.682" y="270.408" transform="matrix(0.7071 0.7071 -0.7071 0.7071 303.1239 -186.8901)" style="fill:#E6E6E6;" width="18.952" height="4.1"/>
		
			<rect x="367.682" y="270.408" transform="matrix(-0.7071 0.7071 -0.7071 -0.7071 836.5059 198.4217)" style="fill:#E6E6E6;" width="18.952" height="4.1"/>
	</g>
	<g>
		
			<rect x="316.061" y="53.796" transform="matrix(0.7071 0.7071 -0.7071 0.7071 136.4986 -216.2321)" style="fill:#E6E6E6;" width="26.41" height="5.714"/>
		
			<rect x="316.061" y="53.796" transform="matrix(-0.7071 0.7071 -0.7071 -0.7071 602.1512 -136.1127)" style="fill:#E6E6E6;" width="26.41" height="5.714"/>
	</g>
	<g>
		
			<rect x="366.6" y="114.582" transform="matrix(0.7071 0.7071 -0.7071 0.7071 208.2758 -254.3665)" style="fill:#E6E6E6;" width="89.17" height="19.292"/>
		
			<rect x="366.6" y="114.582" transform="matrix(-0.7071 0.7071 -0.7071 -0.7071 789.7799 -78.6816)" style="fill:#E6E6E6;" width="89.17" height="19.292"/>
	</g>
	<g>
		<g>
			<g>
				<g>
					<g>
						<path style="fill:#E0E0E0;" d="M443.92,336.111H263.174c-3.232,0-5.862-2.63-5.862-5.862V66.975
							c0-3.232,2.63-5.862,5.862-5.862H443.92c3.232,0,5.862,2.629,5.862,5.862v263.273
							C449.783,333.481,447.153,336.111,443.92,336.111z M263.174,61.363c-3.095,0-5.612,2.518-5.612,5.612v263.273
							c0,3.095,2.518,5.612,5.612,5.612H443.92c3.095,0,5.612-2.518,5.612-5.612V66.975c0-3.094-2.518-5.612-5.612-5.612H263.174z"
							/>
					</g>
				</g>
				<g>
					<g>
						<path style="fill:#E0E0E0;" d="M235.493,336.111H54.746c-3.232,0-5.862-2.63-5.862-5.862V66.975
							c0-3.232,2.629-5.862,5.862-5.862h180.747c3.232,0,5.862,2.629,5.862,5.862v263.273
							C241.355,333.481,238.725,336.111,235.493,336.111z M54.746,61.363c-3.094,0-5.612,2.518-5.612,5.612v263.273
							c0,3.095,2.518,5.612,5.612,5.612h180.747c3.095,0,5.612-2.518,5.612-5.612V66.975c0-3.094-2.518-5.612-5.612-5.612H54.746z"
							/>
					</g>
				</g>
			</g>
			<g>
				<g>
					<rect x="0" y="397.18" style="fill:#E0E0E0;" width="500" height="0.25"/>
				</g>
			</g>
		</g>
		<rect x="51.672" y="411.445" style="fill:#E0E0E0;" width="16.06" height="0.25"/>
		<rect x="170.352" y="408.735" style="fill:#E0E0E0;" width="53.53" height="0.25"/>
		<rect x="68.732" y="420.735" style="fill:#E0E0E0;" width="36.25" height="0.25"/>
		<rect x="378.352" y="408.605" style="fill:#E0E0E0;" width="43.19" height="0.25"/>
		<rect x="430.452" y="408.605" style="fill:#E0E0E0;" width="6.33" height="0.25"/>
		<rect x="316.212" y="414.835" style="fill:#E0E0E0;" width="53.89" height="0.25"/>
	</g>
</g>
<g id="Background_simple" style="display:none;">
	<path style="display:inline;fill:#407BFF;" d="M454.582,183.586c-9.843-100.448-197.232,43.085-229.793,31.909
		c-49.416-16.97,5.11-91.617-47.426-110.082c-73.923-25.96-107.002,55.454-117.69,86.021
		c-10.875,30.857-26.309,104.073,33.364,127.602c91.143,36.007,114.487-37.166,180.658-39.297
		c31.21-1.001,26.18,39.418,74.946,38.776C433.853,317.389,458.099,219.455,454.582,183.586z"/>
	<path style="display:inline;opacity:0.9;fill:#FFFFFF;" d="M454.582,183.586c-9.843-100.448-197.232,43.085-229.793,31.909
		c-49.416-16.97,5.11-91.617-47.426-110.082c-73.923-25.96-107.002,55.454-117.69,86.021
		c-10.875,30.857-26.309,104.073,33.364,127.602c91.143,36.007,114.487-37.166,180.658-39.297
		c31.21-1.001,26.18,39.418,74.946,38.776C433.853,317.389,458.099,219.455,454.582,183.586z"/>
</g>
<g id="Shadow">
	<g>
		<g>
			<ellipse style="fill:#F5F5F5;" cx="256.896" cy="454.571" rx="162.01" ry="12.309"/>
		</g>
	</g>
</g>
<g id="X_marks">
	<g>
		
			<rect x="128.101" y="245.147" transform="matrix(0.7071 0.7071 -0.7071 0.7071 219.015 -30.5464)" style="fill:#407BFF;" width="36.558" height="7.909"/>
		
			<rect x="128.101" y="245.147" transform="matrix(0.7071 0.7071 -0.7071 0.7071 219.015 -30.5464)" style="opacity:0.5;fill:#FFFFFF;" width="36.558" height="7.909"/>
		
			<rect x="128.101" y="245.147" transform="matrix(-0.7071 0.7071 -0.7071 -0.7071 426.0285 321.7377)" style="fill:#407BFF;" width="36.558" height="7.909"/>
		
			<rect x="128.101" y="245.147" transform="matrix(-0.7071 0.7071 -0.7071 -0.7071 426.0285 321.7377)" style="opacity:0.5;fill:#FFFFFF;" width="36.558" height="7.909"/>
	</g>
	<g>
		
			<rect x="231.409" y="76.472" transform="matrix(0.7071 0.7071 -0.7071 0.7071 131.6211 -155.3365)" style="fill:#407BFF;" width="43.819" height="9.48"/>
		
			<rect x="231.409" y="76.472" transform="matrix(0.7071 0.7071 -0.7071 0.7071 131.6211 -155.3365)" style="opacity:0.5;fill:#FFFFFF;" width="43.819" height="9.48"/>
		
			<rect x="231.409" y="76.472" transform="matrix(-0.7071 0.7071 -0.7071 -0.7071 489.8673 -40.4847)" style="fill:#407BFF;" width="43.819" height="9.48"/>
		
			<rect x="231.409" y="76.472" transform="matrix(-0.7071 0.7071 -0.7071 -0.7071 489.8673 -40.4847)" style="opacity:0.5;fill:#FFFFFF;" width="43.819" height="9.48"/>
	</g>
	<g>
		
			<rect x="333.091" y="210.416" transform="matrix(0.7071 0.7071 -0.7071 0.7071 259.4466 -192.8156)" style="fill:#407BFF;" width="58.763" height="12.714"/>
		
			<rect x="333.091" y="210.416" transform="matrix(0.7071 0.7071 -0.7071 0.7071 259.4466 -192.8156)" style="opacity:0.5;fill:#FFFFFF;" width="58.763" height="12.714"/>
		
			<rect x="333.091" y="210.416" transform="matrix(-0.7071 0.7071 -0.7071 -0.7071 772.0611 113.7473)" style="fill:#407BFF;" width="58.763" height="12.714"/>
		
			<rect x="333.091" y="210.416" transform="matrix(-0.7071 0.7071 -0.7071 -0.7071 772.0611 113.7473)" style="opacity:0.5;fill:#FFFFFF;" width="58.763" height="12.714"/>
	</g>
</g>
<g id="Speech_Bubble_2">
	<g>
		<g>
			<g>
				<g>
					<g>
						
							<ellipse transform="matrix(0.5567 -0.8307 0.8307 0.5567 41.3834 347.7565)" style="fill:#407BFF;" cx="346.536" cy="135.102" rx="34.134" ry="34.135"/>
					</g>
					<g style="opacity:0.3;">
						<g>
							
								<ellipse transform="matrix(0.5567 -0.8307 0.8307 0.5567 41.3834 347.7565)" style="fill:#FFFFFF;" cx="346.536" cy="135.102" rx="34.134" ry="34.135"/>
						</g>
					</g>
					<g>
						<polygon style="fill:#407BFF;" points="327.69,153.72 327.771,162.507 316.971,165.004 318.633,154.227 						"/>
					</g>
					<g style="opacity:0.3;">
						<polygon style="fill:#FFFFFF;" points="327.69,153.72 327.771,162.507 316.971,165.004 318.633,154.227 						"/>
					</g>
				</g>
			</g>
			<path style="fill:#407BFF;" d="M306.192,128.676c-0.013,0-0.025-0.001-0.039-0.002c-0.206-0.022-0.355-0.206-0.334-0.412
				c1.168-11.119,8.384-21.533,18.383-26.531c0.185-0.093,0.41-0.018,0.503,0.168c0.093,0.185,0.018,0.41-0.167,0.503
				c-9.776,4.887-16.831,15.068-17.973,25.938C306.545,128.533,306.383,128.676,306.192,128.676z"/>
			<path style="fill:#407BFF;" d="M305.977,138.796c-0.17,0-0.324-0.116-0.365-0.288c-0.401-1.691-0.451-3.487-0.142-5.194
				c0.037-0.203,0.229-0.337,0.436-0.302c0.204,0.037,0.34,0.232,0.303,0.436c-0.291,1.606-0.245,3.296,0.134,4.886
				c0.048,0.202-0.077,0.404-0.278,0.452C306.035,138.793,306.006,138.796,305.977,138.796z"/>
		</g>
		<g>
			<path style="fill:#FFFFFF;" d="M346.504,128.496v16.396h-3.817l-7.237-8.736v8.736h-4.544v-16.396h3.817l7.238,8.736v-8.736
				H346.504z"/>
			<path style="fill:#FFFFFF;" d="M348.935,136.693c0-4.919,3.865-8.526,9.111-8.526c5.247,0,9.111,3.607,9.111,8.526
				c0,4.918-3.864,8.526-9.111,8.526C352.8,145.219,348.935,141.612,348.935,136.693z M362.473,136.693
				c0-2.834-1.943-4.685-4.427-4.685c-2.482,0-4.427,1.851-4.427,4.685c0,2.834,1.944,4.685,4.427,4.685
				C360.529,141.378,362.473,139.527,362.473,136.693z"/>
		</g>
	</g>
</g>
<g id="Speech_Bubble_1">
	<g>
		<g>
			<g>
				<g>
					
						<ellipse transform="matrix(0.7427 -0.6696 0.6696 0.7427 -84.4841 128.175)" style="fill:#407BFF;" cx="124.545" cy="174.022" rx="31.705" ry="31.705"/>
				</g>
				<g>
					<polygon style="fill:#407BFF;" points="148.109,171.904 153.524,165.796 162.524,170.799 154.668,177.193 					"/>
				</g>
			</g>
			<g>
				<path style="fill:#FFFFFF;" d="M124.545,190.152c-1.15,0-2.111-0.371-2.883-1.115c-0.771-0.743-1.157-1.648-1.157-2.715
					c0-1.066,0.379-1.957,1.136-2.673c0.757-0.716,1.725-1.073,2.904-1.073c1.179,0,2.147,0.357,2.904,1.073
					c0.758,0.716,1.137,1.607,1.137,2.673c0,1.067-0.385,1.972-1.157,2.715C126.657,189.78,125.696,190.152,124.545,190.152z
					 M127.155,179.587h-5.22l-1.304-19.236h7.829L127.155,179.587z"/>
			</g>
		</g>
		<path style="fill:#407BFF;" d="M87.074,168.151c-0.013,0-0.026,0-0.039-0.002c-0.206-0.022-0.355-0.206-0.334-0.412
			c1.085-10.336,7.793-20.017,17.09-24.665c0.186-0.093,0.41-0.017,0.503,0.168c0.093,0.185,0.018,0.41-0.168,0.503
			c-9.073,4.536-15.62,13.984-16.679,24.072C87.426,168.008,87.263,168.151,87.074,168.151z"/>
		<path style="fill:#407BFF;" d="M86.873,177.551c-0.169,0-0.323-0.116-0.364-0.288c-0.374-1.572-0.42-3.245-0.133-4.835
			c0.037-0.204,0.23-0.337,0.436-0.302c0.204,0.037,0.339,0.232,0.302,0.436c-0.27,1.49-0.227,3.055,0.124,4.528
			c0.048,0.202-0.076,0.404-0.278,0.452C86.932,177.548,86.902,177.551,86.873,177.551z"/>
	</g>
</g>
<g id="Character">
	<g>
		<path style="fill:#407BFF;" d="M318.862,312.82c0-18.357-26.587-61.24-26.587-61.24l-62.58,1.483l-31.025,0.916l-16.341,43.779
			l10.853,98.909l-18.511,50.651h149.188l-13.805-47.163C310.053,400.154,318.862,331.177,318.862,312.82z"/>
		<g style="opacity:0.2;">
			<path d="M187.249,413.416c15.206-1.761,29.912-7.376,39.863-19.008c9.952-11.632,13.351-21.544,20.125-35.271
				c0.601,1.405,9.861,13.555,16.159,20.359c6.298,6.803,14.106,12.079,22.372,16.278c8.361,4.247,17.253,7.447,26.402,9.502
				l-2.3-8.805l-60.232-65.631l-59.582,72.815L187.249,413.416z"/>
		</g>
		<path style="fill:#FDBBB5;" d="M253.9,310.884c0,0-8.811-12.604-10.234-15.705c-1.423-3.102-1.531-13.464-2.727-13.092
			c-1.196,0.372-4.822,3.29-4.843,4.931l-19.016-29.386c0,0-2.769,0.067-2.983,2.181c0,0-3.985,0.746-2.781,7.44
			c1.204,6.694,2.681,7.83,2.681,7.83s-0.616,3.224,2.169,8.599c2.785,5.376,7.342,17.157,7.342,17.157s9.435,24.238,15.422,29.445
			c5.987,5.207,7.74,5.124,7.74,5.124l6.844,9.283l14.661-15.205L253.9,310.884z"/>
		<path style="fill:#FDBBB5;" d="M240.27,315.717l-54.149,40.678l1.602-38.769L151.8,306.575
			c-0.476,23.344-7.846,103.532,22.68,105.102c30.028,1.544,77.811-78.826,77.811-78.826L240.27,315.717z"/>
		<path style="fill:#407BFF;" d="M198.67,253.979c0,0-23.072-0.576-37.051,22.616c-8.745,14.51-20.825,45.695-20.825,45.695
			l48.106,13.918C189.788,335.201,198.67,253.979,198.67,253.979z"/>
		<path style="fill:#FDBBB5;" d="M317.561,321.139l-0.671,35.419l-54.875-35.74c-1.246,1.615-8.698,23.61-8.698,23.61
			s48.452,62.838,76.319,62.851c23.634,0.011,23.421-30.473,23.767-51.783c0.306-18.874-2.57-40.589-2.57-40.589L317.561,321.139z"
			/>
		<path style="opacity:0.3;" d="M251.8,342.367c0,0,7.115-10.276,7.248-10.676c0.134-0.401,9.126-6.862,9.126-6.862l-4.161-2.71
			c0,0-8.25,3.243-8.784,3.643c-0.534,0.401-6.501,12.438-6.501,12.438L251.8,342.367z"/>
		<g>
			<path style="fill:#FDBBB5;" d="M249.464,302.354c0,0,8.811-12.604,10.234-15.705c1.423-3.102,1.531-13.464,2.727-13.092
				c1.196,0.372,4.822,3.29,4.843,4.931l19.016-29.386c0,0,2.769,0.067,2.983,2.181c0,0,3.985,0.746,2.781,7.44
				c-1.203,6.694-2.681,7.83-2.681,7.83s0.616,3.224-2.168,8.599c-2.785,5.376-7.342,17.157-7.342,17.157
				s-9.435,24.238-15.422,29.445c-5.987,5.208-7.74,5.124-7.74,5.124l-7.968,11.557l-13.537-17.479L249.464,302.354z"/>
			<path style="fill:#FF807B;" d="M261.866,286.237c2.049-2.819,4.025-5.692,6.01-8.555c0.207-0.299,0.415-0.598,0.622-0.898
				c0.275-0.398-0.375-0.773-0.648-0.379c-1.659,2.4-3.326,4.795-5.008,7.178c-0.537,0.761-1.076,1.521-1.624,2.275
				C260.934,286.25,261.584,286.624,261.866,286.237L261.866,286.237z"/>
			<path style="fill:#FF807B;" d="M289.669,266.975c-0.159-1.52-1.665-2.331-3.105-2.142c-2.133,0.281-3.273,2.631-4.237,4.272
				c-2.994,5.096-5.988,10.192-8.981,15.288c-0.245,0.417,0.403,0.795,0.648,0.379c2.35-4,4.7-8,7.05-12
				c1.065-1.812,2.027-3.764,3.272-5.461c0.583-0.795,1.368-1.621,2.401-1.737c0.929-0.104,2.094,0.359,2.204,1.402
				C288.969,267.45,289.719,267.455,289.669,266.975L289.669,266.975z"/>
			<path style="fill:#FF807B;" d="M271.361,280.427c4.696-6.914,9.26-13.938,13.542-21.116c1.492-2.5,2.951-5.025,4.27-7.622
				c0.218-0.429-0.429-0.809-0.648-0.379c-4.641,9.132-10.455,17.729-16.133,26.239c-0.557,0.835-1.115,1.669-1.679,2.499
				C270.442,280.449,271.091,280.825,271.361,280.427L271.361,280.427z"/>
		</g>
		<g>
			<path style="fill:#FF807B;" d="M241.064,293.209c-2.049-2.819-4.025-5.692-6.01-8.555c-0.207-0.299-0.415-0.598-0.622-0.898
				c-0.273-0.394-0.923-0.02-0.648,0.379c1.659,2.4,3.326,4.795,5.008,7.178c0.537,0.761,1.076,1.521,1.624,2.275
				C240.697,293.974,241.348,293.6,241.064,293.209L241.064,293.209z"/>
			<path style="fill:#FF807B;" d="M214.445,275.505c0.103-0.977,1.138-1.445,2.025-1.421c1.051,0.029,1.899,0.846,2.495,1.638
				c1.291,1.718,2.269,3.729,3.356,5.58c2.35,4,4.7,8,7.05,12c0.244,0.416,0.893,0.039,0.648-0.379
				c-2.994-5.096-5.987-10.192-8.981-15.288c-0.957-1.629-2.051-3.886-4.124-4.254c-1.466-0.261-3.055,0.569-3.219,2.124
				C213.645,275.984,214.395,275.981,214.445,275.505L214.445,275.505z"/>
			<path style="fill:#FF807B;" d="M232.592,287.689c-6.817-8.676-12.76-18.009-17.754-27.848c-0.218-0.431-0.866-0.051-0.648,0.379
				c5.024,9.898,11.013,19.271,17.871,28C232.359,288.598,232.887,288.064,232.592,287.689L232.592,287.689z"/>
		</g>
		<path style="opacity:0.3;" d="M232.718,321.212c0,0,5.557-3.77,5.952-4.675c0.396-0.905,10.057-13.223,10.057-13.223l-2.025-3.07
			l-16.098,16.794L232.718,321.212z"/>
		<path style="fill:#FF807B;" d="M185.906,355.682c-6.109,3.474-11.375,8.251-15.559,13.887c-0.288,0.388,0.363,0.762,0.648,0.379
			c4.106-5.531,9.298-10.21,15.29-13.618C186.704,356.091,186.326,355.443,185.906,355.682L185.906,355.682z"/>
		<path style="fill:#FF807B;" d="M316.159,356.389c5.316,2.942,9.751,7.303,12.782,12.568c0.241,0.418,0.889,0.041,0.648-0.379
			c-3.092-5.372-7.629-9.836-13.051-12.838C316.115,355.508,315.737,356.155,316.159,356.389L316.159,356.389z"/>
		<path style="fill:#407BFF;" d="M292.275,251.58c0,0,24.706-2.01,39.764,20.497c9.42,14.081,21.388,44.973,21.388,44.973
			l-47.396,16.173C305.097,332.258,292.275,251.58,292.275,251.58z"/>
		<path style="fill:#263238;" d="M187.657,336.898c-1.294-16.147-0.863-32.405,1.304-48.459c0.064-0.472-0.659-0.676-0.723-0.199
			c-2.177,16.123-2.63,32.44-1.331,48.658C186.945,337.376,187.695,337.38,187.657,336.898L187.657,336.898z"/>
		<path style="fill:#263238;" d="M316.612,330.839c1.206-13.831,0.117-27.793-3.209-41.271c-0.116-0.468-0.839-0.27-0.723,0.199
			c3.31,13.417,4.382,27.305,3.182,41.072C315.82,331.32,316.57,331.317,316.612,330.839L316.612,330.839z"/>
		<path style="fill:#263238;" d="M313.679,290.228c1.013-1.309,2.027-2.619,3.04-3.928c0.124-0.16,0.156-0.374,0-0.53
			c-0.129-0.129-0.406-0.161-0.53,0c-1.013,1.31-2.027,2.619-3.04,3.928c-0.124,0.16-0.156,0.374,0,0.53
			C313.278,290.357,313.554,290.389,313.679,290.228L313.679,290.228z"/>
		<path style="fill:#263238;" d="M224.502,421.346c15.246-4.184,30.72-7.505,46.341-9.944c0.475-0.074,0.274-0.797-0.199-0.723
			c-15.621,2.439-31.094,5.76-46.341,9.944C223.838,420.751,224.035,421.474,224.502,421.346L224.502,421.346z"/>
	</g>
	<g>
		<g>
			<path style="fill:#263238;" d="M188.855,168.204c-3.386,11.334-6.98,19.177-13.769,26.999c-2.354,2.713-5.134,5.545-5.28,9.134
				c-0.155,3.805,2.9,7.148,6.433,8.568c3.534,1.421,7.466,1.337,11.273,1.233c0.277,4.225,2.958,8.21,6.767,10.058
				c3.809,1.848,8.599,1.488,12.089-0.91c0.553,4.785,3.982,9.123,8.51,10.766c4.528,1.643,9.941,0.514,13.434-2.802l4.801-24.406
				L188.855,168.204z"/>
		</g>
		<g>
			<g>
				<path style="fill:#263238;" d="M320.816,206.795c-0.476-3.141-4.226-4.136-7.07-5.348c-6.576-2.803-10.653-9.843-12.117-17.032
					c-1.464-7.189-0.755-14.658-0.339-22.015c0.416-7.358-1.178-14.544-3.79-21.365c-2.612-6.821-11.418-16.806-18.838-13.557
					L236.466,223.4c4.305,6.657,13.234,9.658,20.617,6.929c6.915,2.986,15.716,0.547,20.344-5.637
					c7.425,1.913,15.647,0.458,22.102-3.911c2.005-1.357,4.04-3.904,2.834-6.007c4.945,1.495,10.531,0.675,14.926-2.193
					C319.27,211.287,321.175,209.164,320.816,206.795z"/>
			</g>
		</g>
		<g>
			<path style="fill:#FDBBB5;" d="M273.932,253.786c-19.363-4.622-18.853-18.96-15.488-32.469l-35.2-26.892
				c3.401,17.349,8.882,47.784-3.253,59.362c0,0,29.611,15.659,42.283,11.212C274.947,260.552,273.932,253.786,273.932,253.786z"/>
			<path style="opacity:0.2;enable-background:new    ;" d="M238.429,218.827c0.782,7.738,10.938,15.855,18.332,16.922
				c0.273-3.235,0.833-6.439,1.671-9.575l-19.6-16.709C238.134,212.536,237.997,215.708,238.429,218.827z"/>
		</g>
		<g>
			<g>
				<path style="fill:#FDBBB5;" d="M212.09,165.407c2.487,27.285,2.924,38.891,16.912,52.492
					c21.01,20.48,53.335,11.464,58.881-16.051c5.03-24.752,0.134-65.212-26.429-75.145
					C234.891,116.772,209.474,138.143,212.09,165.407z"/>
				<path style="fill:#263238;" d="M245.28,173.608c-0.376,2.901,0.764,5.537,2.546,5.891c1.781,0.353,3.529-1.711,3.904-4.611
					c0.376-2.9-0.764-5.538-2.545-5.891C247.403,168.643,245.656,170.707,245.28,173.608z"/>
				<path style="fill:#263238;" d="M272.167,174.901c-0.358,2.811,0.792,5.377,2.567,5.729c1.776,0.352,3.506-1.64,3.864-4.452
					c0.358-2.811-0.792-5.376-2.568-5.728C274.254,170.096,272.524,172.09,272.167,174.901z"/>
				<path style="fill:#263238;" d="M246.773,163.004c0.227,0.272,0.555,0.445,0.926,0.452c5.796,0.098,8.297,4.41,8.326,4.46
					c0.37,0.64,1.166,0.847,1.785,0.437c0.616-0.411,0.817-1.272,0.448-1.926c-0.129-0.226-3.265-5.643-10.458-5.763
					c-0.717-0.012-1.321,0.604-1.35,1.375C246.438,162.409,246.56,162.749,246.773,163.004z"/>
				<path style="fill:#263238;" d="M282.113,159.325c0.196-0.219,0.295-0.513,0.251-0.836c-0.091-0.669-0.75-1.206-1.472-1.203
					c-7.239,0.034-9.973,4.69-10.086,4.891c-0.319,0.562-0.049,1.309,0.607,1.671c0.653,0.362,1.441,0.2,1.763-0.358
					c0.104-0.184,2.285-3.759,8.042-3.785C281.59,159.702,281.906,159.556,282.113,159.325z"/>
				<path style="fill:#FF807B;" d="M264.32,171.524c0,0,2.452,10.929,6.128,18.122c0.643,1.257-0.163,2.784-1.552,3.033
					c-3.577,0.642-7.307-1.172-7.307-1.172L264.32,171.524z"/>
				<path style="fill:#263238;" d="M248.755,168.934l6.5-0.37C255.256,168.564,251.02,172.613,248.755,168.934z"/>
				<path style="fill:#263238;" d="M275.413,170.4l6.501-0.37C281.913,170.03,277.678,174.079,275.413,170.4z"/>
				<g>
					<path style="fill:#263238;" d="M264.411,115.561c-58.921-14.665-72.154,35.481-72.154,35.481
						c-2.048,9.778-3.604,22.249-7.995,31.127l42.38,34.026l-7.698-28.5c13.735-0.603,48.944-54.608,48.944-54.608
						s0.881-6.492,0,1.788l12.862,1.59C287.425,123.59,264.411,115.561,264.411,115.561z"/>
				</g>
				<path style="fill:#FDBBB5;" d="M207.846,187.065c2.224,6.144,6.822,10.569,11.395,12.615c6.877,3.078,12.641-7.834,11.46-15.479
					c-1.063-6.881-7.374-12.429-14.628-12.253C208.926,172.121,205.302,180.04,207.846,187.065z"/>
				<path style="opacity:0.2;" d="M224.39,190.31c-0.014,0-0.027-0.001-0.041-0.003c-0.206-0.022-0.354-0.207-0.332-0.413
					c0.274-2.522-0.478-5.103-2.063-7.082c-1.586-1.979-3.941-3.276-6.46-3.558c-0.206-0.023-0.354-0.209-0.331-0.414
					c0.023-0.206,0.21-0.347,0.414-0.331c2.716,0.304,5.253,1.701,6.962,3.835c1.708,2.132,2.519,4.914,2.223,7.632
					C224.741,190.167,224.579,190.31,224.39,190.31z"/>
				<path style="fill:#263238;" d="M267.65,129.25c-0.294,10.501-4.133,20.593-10.891,28.635c0,0,19.196-10.111,25.654-22.855
					L267.65,129.25z"/>
			</g>
			<path style="opacity:0.2;enable-background:new    ;" d="M258.345,173.074c-0.14,0-0.274-0.079-0.339-0.214
				c-0.089-0.187-0.01-0.411,0.178-0.5c1.613-0.768,2.826-2.334,3.165-4.088c0.039-0.203,0.233-0.337,0.439-0.297
				c0.203,0.039,0.336,0.236,0.297,0.439c-0.383,1.983-1.755,3.754-3.579,4.623C258.454,173.063,258.399,173.074,258.345,173.074z"
				/>
		</g>
		<path style="fill:#263238;" d="M252.446,198.286c3.324-0.051,6.598,0.519,9.721,1.653c0.909,0.33,1.3-1.119,0.399-1.446
			c-3.238-1.177-6.674-1.76-10.12-1.707C251.482,196.801,251.479,198.301,252.446,198.286L252.446,198.286z"/>
		<path d="M259.029,126.882c-8.568,8.673-18.045,16.425-28.268,23.069c-4.882,3.173-9.934,6.044-15.088,8.749
			c-4.563,2.395-9.167,4.765-13.401,7.72c-4.516,3.152-8.532,7.011-11.109,11.93c-0.224,0.427,0.423,0.807,0.648,0.379
			c4.916-9.382,14.742-14.397,23.741-19.118c10.23-5.367,19.971-11.484,29.01-18.696c5.263-4.199,10.267-8.713,14.998-13.502
			C259.899,127.069,259.369,126.538,259.029,126.882L259.029,126.882z"/>
		<path d="M262.68,132.186c-11.325,12.169-24.624,21.899-39.294,29.645c-6.458,3.41-13.096,6.791-18.517,11.772
			c-5.382,4.946-8.859,11.378-10.089,18.582c-1.411,8.267-0.141,16.836,2.64,24.686c0.16,0.452,0.885,0.257,0.723-0.199
			c-4.991-14.089-4.809-30.894,6.558-41.882c5.335-5.157,12.035-8.604,18.539-12.035c6.943-3.663,13.668-7.629,20.007-12.274
			c7.199-5.276,13.883-11.231,19.963-17.765C263.539,132.363,263.01,131.832,262.68,132.186L262.68,132.186z"/>
		<path d="M281.082,134.6c12.902,8.54,12.961,25.674,12.602,39.434c-0.013,0.483,0.737,0.482,0.75,0
			c0.367-14.065,0.182-31.375-12.973-40.082C281.057,133.685,280.681,134.334,281.082,134.6L281.082,134.6z"/>
	</g>
</g>
</svg>
